<!-- Generated by IcoMoon.io -->
<svg version="1.1" fill="currentColor" xmlns="http://www.w3.org/2000/svg" width="32" height="32" viewBox="0 0 32 32">
<path d="M16 6.667c-5.155 0-9.333 4.179-9.333 9.333s4.179 9.333 9.333 9.333c5.155 0 9.333-4.179 9.333-9.333s-4.179-9.333-9.333-9.333zM16.001 22.193c-0.791 0-1.431-0.641-1.431-1.431s0.641-1.431 1.431-1.431c0.79 0 1.431 0.641 1.431 1.431s-0.641 1.431-1.431 1.431zM17.753 11.92l-1.27 6.752c-0.155-0.035-0.317-0.055-0.483-0.055s-0.328 0.019-0.483 0.055l-1.27-6.752c-0.182-0.968 0.455-1.9 1.423-2.083s1.9 0.455 2.083 1.423c0.041 0.223 0.039 0.449-0 0.66z"></path>
</svg>
