<!-- Generated by IcoMoon.io -->
<svg version="1.1" fill="currentColor" xmlns="http://www.w3.org/2000/svg" width="32" height="32" viewBox="0 0 32 32">
<path d="M15.333 8c-4.044 0-7.333 3.29-7.333 7.333s3.29 7.333 7.333 7.333c4.044 0 7.333-3.29 7.333-7.333s-3.29-7.333-7.333-7.333zM15.333 19.44c-0.324 0-0.587-0.263-0.587-0.587s0.263-0.587 0.587-0.587c0.324 0 0.587 0.263 0.587 0.587s-0.263 0.587-0.587 0.587zM16.625 15.721c-0.536 0.397-0.998 0.74-0.998 1.373 0 0.162-0.131 0.293-0.293 0.293s-0.293-0.131-0.293-0.293c0-0.929 0.657-1.415 1.236-1.844 0.596-0.442 1.111-0.823 1.111-1.621 0-1.069-0.844-1.815-2.053-1.815s-2.053 0.844-2.053 2.053c0 0.162-0.131 0.293-0.293 0.293s-0.293-0.131-0.293-0.293c0-1.53 1.11-2.64 2.64-2.64s2.64 1.010 2.64 2.402c-0 1.093-0.717 1.624-1.349 2.092z"></path>
</svg>
