<!-- Generated by IcoMoon.io -->
<svg version="1.1" fill="currentColor" xmlns="http://www.w3.org/2000/svg" width="32" height="32" viewBox="0 0 32 32">
<path d="M11.716 7.745c-2.997 1.546-5.049 4.668-5.049 8.278 0 8.389 10.211 12.449 15.975 6.455 7.377-7.653-1.785-19.442-10.926-14.733zM21.094 14.139l-5.824 5.839c-0.285 0.287-0.658 0.43-1.033 0.43s-0.748-0.143-1.034-0.43l-2.381-2.384c-0.572-0.573-0.572-1.503 0-2.075 0.572-0.574 1.498-0.574 2.070 0l1.345 1.347 4.789-4.8c0.572-0.573 1.497-0.573 2.069 0 0.574 0.572 0.574 1.501 0 2.073z"></path>
</svg>
