<?xml version="1.0" encoding="UTF-8"?>
<svg id="Capa_1" data-name="Capa 1" xmlns="http://www.w3.org/2000/svg" viewBox="0 0 3500 3500">
  <defs>
    <style>
      .cls-1 {
        fill: #1c3647;
      }

      .cls-2 {
        fill: #eb7f58;
      }
    </style>
  </defs>
  <polygon class="cls-1" points="1813.44 1621.82 1813.44 2040.93 2767.85 2717.42 2767.85 2298.32 1813.44 1621.82"/>
  <polygon class="cls-1" points="1813.44 2404.11 1813.44 2823.21 2767.85 3499.71 2767.85 3080.6 1813.44 2404.11"/>
  <polygon class="cls-2" points="732.15 3500 1813.44 2823.21 1813.44 2404.11 732.15 3080.9 732.15 3500"/>
  <polygon class="cls-2" points="732.15 2298.61 732.15 2717.71 1813.44 2040.93 1813.44 1621.82 732.15 2298.61"/>
  <polygon class="cls-1" points="1813.44 839.22 1813.44 1258.33 2767.85 1934.82 2767.85 1515.72 1813.44 839.22"/>
  <polygon class="cls-2" points="732.15 1516.01 732.15 1935.11 1813.44 1258.33 1813.44 839.22 732.15 1516.01"/>
  <polygon class="cls-1" points="2435.1 420.12 1842.38 0 1842.38 419.1 2435.1 839.22 2435.1 420.12"/>
  <polygon class="cls-2" points="1191.79 407.21 1191.79 826.32 1842.38 419.1 1842.38 0 1191.79 407.21"/>
</svg>